<svg class="Logo__img" width="126" height="26" viewBox="0 0 126 26" fill="none" xmlns="http://www.w3.org/2000/svg">
<rect y="0.5" width="8" height="22" fill="#467AFF"/>
<path class="Logo__item" d="M12.3043 20.6892C16.2619 20.6892 19.0509 18.6258 19.0509 15.2471C19.0509 11.5589 15.9166 10.6046 12.9683 9.70183C10.1529 8.87649 9.43571 8.28328 9.43571 7.17422C9.43571 6.14255 10.3388 5.36879 11.8793 5.36879C13.7652 5.36879 14.7745 6.32309 15.4385 7.69006L18.5196 5.962C17.2713 3.43439 14.9339 1.91267 11.8793 1.91267C8.692 1.91267 5.77027 3.87286 5.77027 7.27739C5.77027 10.7077 8.53264 11.8684 11.3747 12.6679C14.137 13.4417 15.3854 13.9575 15.3854 15.2987C15.3854 16.3046 14.6151 17.2073 12.4106 17.2073C10.0997 17.2073 8.79825 16.124 8.13422 14.4475L5 16.2272C6.00932 18.9096 8.50607 20.6892 12.3043 20.6892Z" fill="white"/>
<path class="Logo__item" d="M28.4896 10.6303V7.43214H25.4882V3.82127L22.0618 4.82716V7.43214H19.751V10.6303H22.0618V15.9951C22.0618 19.477 23.682 20.8439 28.4896 20.3281V17.3105C26.5241 17.4136 25.4882 17.3878 25.4882 15.9951V10.6303H28.4896Z" fill="white"/>
<path class="Logo__item" d="M39.8497 7.43214L36.9014 16.0982L33.4485 7.43214H29.7033L35.1484 19.9154C34.5109 21.6435 33.5547 22.4173 31.6689 22.3915V25.4865C35.0421 25.667 37.2998 24.0421 38.681 20.3281L43.5151 7.43214H39.8497Z" fill="white"/>
<path class="Logo__item" d="M45.1457 20.3281H48.5721V1.5H45.1457V20.3281Z" fill="white"/>
<path class="Logo__item" d="M54.6034 15.2471H64.617C64.6966 14.8086 64.7498 14.3702 64.7498 13.8801C64.7498 10.0887 61.9608 7.07106 58.0298 7.07106C53.8597 7.07106 51.0176 10.0371 51.0176 13.8801C51.0176 17.7231 53.8331 20.6892 58.2954 20.6892C60.8453 20.6892 62.8374 19.6833 64.0857 17.9295L61.3234 16.3819C60.739 17.1299 59.6766 17.6715 58.3485 17.6715C56.5424 17.6715 55.0815 16.9494 54.6034 15.2471ZM54.5503 12.6679C54.9487 11.0172 56.1971 10.0629 58.0298 10.0629C59.4641 10.0629 60.8984 10.8109 61.3234 12.6679H54.5503Z" fill="white"/>
<path class="Logo__item" d="M69.7837 11.0946C69.7837 10.3982 70.4743 10.0371 71.3243 10.0371C72.307 10.0371 73.0507 10.5272 73.4492 11.3525L76.3709 9.805C75.335 8.02536 73.4757 7.07106 71.3243 7.07106C68.5885 7.07106 66.2776 8.5412 66.2776 11.172C66.2776 15.7114 73.1304 14.6797 73.1304 16.5625C73.1304 17.3105 72.3867 17.6715 71.2977 17.6715C69.9696 17.6715 69.0666 17.0525 68.6947 15.9951L65.7199 17.62C66.6761 19.6059 68.6416 20.6892 71.2977 20.6892C74.1397 20.6892 76.6365 19.348 76.6365 16.5625C76.6365 11.8168 69.7837 13.0032 69.7837 11.0946Z" fill="white"/>
<path class="Logo__item" d="M86.5131 2.27376H79.1291V20.3281H86.5131C91.6394 20.3281 95.4642 16.3819 95.4642 11.3009C95.4642 6.21992 91.6394 2.27376 86.5131 2.27376ZM86.5131 16.9236H82.7945V5.67829H86.5131C89.727 5.67829 91.9581 7.97377 91.9581 11.3009C91.9581 14.6281 89.727 16.9236 86.5131 16.9236Z" fill="white"/>
<path class="Logo__item" d="M104.226 20.6892C108.131 20.6892 111.265 17.7231 111.265 13.8801C111.265 10.0371 108.131 7.07106 104.226 7.07106C100.322 7.07106 97.2143 10.0371 97.2143 13.8801C97.2143 17.7231 100.322 20.6892 104.226 20.6892ZM104.226 17.4394C102.208 17.4394 100.641 15.9693 100.641 13.8801C100.641 11.791 102.208 10.3208 104.226 10.3208C106.272 10.3208 107.839 11.791 107.839 13.8801C107.839 15.9693 106.272 17.4394 104.226 17.4394Z" fill="white"/>
<path class="Logo__item" d="M119.997 20.6892C122.6 20.6892 124.858 19.348 126 17.3362L123.025 15.6856C122.494 16.743 121.352 17.3878 119.971 17.3878C117.925 17.3878 116.411 15.9177 116.411 13.8801C116.411 11.8168 117.925 10.3466 119.971 10.3466C121.325 10.3466 122.467 11.0172 122.999 12.0747L125.947 10.3982C124.858 8.41224 122.6 7.07106 119.997 7.07106C115.96 7.07106 112.985 10.0371 112.985 13.8801C112.985 17.7231 115.96 20.6892 119.997 20.6892Z" fill="white"/>
</svg>
