<svg width="32" height="32" viewBox="0 0 33 32" fill="none" xmlns="http://www.w3.org/2000/svg">
  <path d="M15.4999 23C19.9182 23 23.4999 19.4183 23.4999 15C23.4999 10.5817 19.9182 7 15.4999 7C11.0817 7 7.49994 10.5817 7.49994 15C7.49994 19.4183 11.0817 23 15.4999 23Z" stroke="#000000" stroke-width="2" stroke-linecap="round" stroke-linejoin="round"/>
  <path d="M24.7932 25.707L25.5003 26.4141L26.9145 24.9999L26.2074 24.2928L24.7932 25.707ZM21.8574 19.9428C21.4669 19.5523 20.8337 19.5523 20.4432 19.9428C20.0527 20.3333 20.0527 20.9665 20.4432 21.357L21.8574 19.9428ZM26.2074 24.2928L21.8574 19.9428L20.4432 21.357L24.7932 25.707L26.2074 24.2928Z" fill="#000000"/>
</svg>
